<?xml version="1.0" encoding="iso-8859-1"?>
<!-- Generator: Adobe Illustrator 19.0.0, SVG Export Plug-In . SVG Version: 6.00 Build 0)  -->
<svg version="1.1" id="Layer_1" xmlns="http://www.w3.org/2000/svg" xmlns:xlink="http://www.w3.org/1999/xlink" x="0px" y="0px"
	 viewBox="0 0 512 512" style="enable-background:new 0 0 512 512;" xml:space="preserve">
<path style="fill:#050B55;" d="M372.016,104.096c0,0-45.792-30.616-116.016-30.616s-116.016,30.616-116.016,30.616L63.656,0v512H256
	h192.344V0L372.016,104.096z"/>
<g>
	<path style="fill:#FF3D2E;" d="M111.464,211.248l125.176,41.328c0,0-29,48.984-71.744,39.8
		C122.152,283.2,111.464,211.248,111.464,211.248z"/>
	<path style="fill:#FF3D2E;" d="M400.536,211.248L275.36,252.584c0,0,29,48.984,71.744,39.8S400.536,211.248,400.536,211.248z"/>
</g>
<g style="opacity:0.15;">
	<path style="fill:#FFFFFF;" d="M256,73.48c-70.224,0-116.016,30.616-116.016,30.616L63.656,0v512H256"/>
</g>
<rect x="139.224" y="356.384" style="fill:#FFCC67;" width="233.6" height="96.4"/>
<path d="M189.088,420.68H326.48C326.48,420.68,265.416,353.32,189.088,420.68z"/>
<g style="opacity:0.15;">
	<path d="M139.224,356.384v41.664c0,0,110.04-48.112,233.56,0v-41.664H139.224z"/>
</g>
<g>
</g>
<g>
</g>
<g>
</g>
<g>
</g>
<g>
</g>
<g>
</g>
<g>
</g>
<g>
</g>
<g>
</g>
<g>
</g>
<g>
</g>
<g>
</g>
<g>
</g>
<g>
</g>
<g>
</g>
</svg>
